HIERARCHY
ROOT Hips
{
	OFFSET -3.958830 18.904000 13.208200
	CHANNELS 6 Xposition Yposition Zposition Zrotation Yrotation Xrotation 
	JOINT LHipJoint
	{
		OFFSET 0.000000 0.000000 0.000000
		CHANNELS 3 Zrotation Yrotation Xrotation
		JOINT LeftUpLeg
		{
			OFFSET 1.800000 -1.400000 0.085000
			CHANNELS 3 Zrotation Yrotation Xrotation
			JOINT LeftLeg
			{
				OFFSET 2.215000 -6.000000 0.000000
				CHANNELS 3 Zrotation Yrotation Xrotation
				JOINT LeftFoot
				{
					OFFSET 2.500000 -6.900000 0.000000
					CHANNELS 3 Zrotation Yrotation Xrotation
					JOINT LeftToeBase
					{
						OFFSET 0.200000 -0.500000 1.950000
						CHANNELS 3 Zrotation Yrotation Xrotation
						End Site
						{
							OFFSET 0.000000 0.000000 0.000000
						}
					}
				}
			}
		}
	}
	JOINT RHipJoint
	{
		OFFSET 0.000000 0.000000 0.000000
		CHANNELS 3 Zrotation Yrotation Xrotation
		JOINT RightUpLeg
		{
			OFFSET -1.800000 -1.400000 0.085000
			CHANNELS 3 Zrotation Yrotation Xrotation
			JOINT RightLeg
			{
				OFFSET -2.215000 -6.000000 0.000000
				CHANNELS 3 Zrotation Yrotation Xrotation
				JOINT RightFoot
				{
					OFFSET -2.500000 -6.900000 0.000000
					CHANNELS 3 Zrotation Yrotation Xrotation
					JOINT RightToeBase
					{
						OFFSET -0.200000 -0.500000 1.950000
						CHANNELS 3 Zrotation Yrotation Xrotation
						End Site
						{
							OFFSET 0.000000 0.000000 0.000000
						}
					}
				}
			}
		}
	}
	JOINT LowerBack
	{
		OFFSET 0.000000 0.000000 0.000000
		CHANNELS 3 Zrotation Yrotation Xrotation
		JOINT Spine
		{
			OFFSET -0.087000 1.940000 -0.288900
			CHANNELS 3 Zrotation Yrotation Xrotation
			JOINT Spine1
			{
				OFFSET 0.000000 1.950000 0.060000
				CHANNELS 3 Zrotation Yrotation Xrotation
				JOINT Neck
				{
					OFFSET 0.000000 0.000000 0.000000
					CHANNELS 3 Zrotation Yrotation Xrotation
					JOINT Neck1
					{
						OFFSET 0.000000 1.600000 0.340000
						CHANNELS 3 Zrotation Yrotation Xrotation
						JOINT Head
						{
							OFFSET 0.000000 1.667000 -0.240000
							CHANNELS 3 Zrotation Yrotation Xrotation
							End Site
							{
								OFFSET 0.000000 0.000000 0.000000
							}
						}
					}
				}
				JOINT LeftShoulder
				{
					OFFSET 0.000000 0.000000 0.000000
					CHANNELS 3 Zrotation Yrotation Xrotation
					JOINT LeftArm
					{
						OFFSET 2.700000 1.550000 -0.730000
						CHANNELS 3 Zrotation Yrotation Xrotation
						JOINT LeftForeArm
						{
							OFFSET 5.450000 0.000000 0.000000
							CHANNELS 3 Zrotation Yrotation Xrotation
							JOINT LeftHand
							{
								OFFSET 3.450000 0.000000 0.000000
								CHANNELS 3 Zrotation Yrotation Xrotation
								JOINT LeftHandIndex1
								{
									OFFSET 0.750000 0.000000 0.000000
									CHANNELS 3 Zrotation Yrotation Xrotation
									End Site
									{
										OFFSET 0.000000 0.000000 0.000000
									}
								}
							}
						}
					}
				}
				JOINT RightShoulder
				{
					OFFSET 0.000000 0.000000 0.000000
					CHANNELS 3 Zrotation Yrotation Xrotation
					JOINT RightArm
					{
						OFFSET -2.700000 1.550000 -0.730000
						CHANNELS 3 Zrotation Yrotation Xrotation
						JOINT RightForeArm
						{
							OFFSET -5.450000 0.000000 0.000000
							CHANNELS 3 Zrotation Yrotation Xrotation
							JOINT RightHand
							{
								OFFSET -3.450000 0.000000 0.000000
								CHANNELS 3 Zrotation Yrotation Xrotation
								JOINT RightHandIndex1
								{
									OFFSET -0.750000 0.000000 0.000000
									CHANNELS 3 Zrotation Yrotation Xrotation
									End Site
									{
										OFFSET 0.000000 0.000000 0.000000
									}
								}
							}
						}
					}
				}
			}
		}
	}
}
MOTION
Frames: 12
Frame Time: 0.016667
-0.428540 16.904790 1.477560 -4.819970 -18.172492 -7.353240 -15.342039 13.938458 3.341054 29.701238 -0.792531 -18.888664 1.928633 13.959084 52.999701 1.110984 10.738282 0.937322 -0.286490 -0.400900 -0.430290 18.202132 -10.301337 2.076792 -16.398358 2.848417 -26.277253 -7.949132 -8.628557 62.640108 -1.121034 -9.572670 1.005058 -0.289050 0.767340 0.371620 -3.091514 -3.798668 -7.985156 16.800055 -6.616162 16.371605 1.656672 -4.476333 -0.072121 4.620193 -9.840032 -13.261119 -17.911925 6.936995 21.420744 -1.854580 3.904090 4.050560 8.854721 9.287940 6.376924 -47.953463 15.603281 -15.759454 -8.742328 -43.321906 0.171422 -3.675433 3.675704 0.097630 0.368370 -0.161950 0.247710 -16.961139 1.405928 6.468659 5.666582 -3.314234 -8.384824 -131.187648 11.948039 -33.521255 2.588800 -2.485615 -0.155550 0.117260 0.245640 0.276470 
-0.422630 16.910310 1.443820 -4.965249 -17.029207 -8.661169 -15.441124 14.040224 3.426107 30.601541 -0.720143 -18.483185 1.509545 14.216200 52.615708 1.109358 10.757937 0.903719 -0.237580 -0.353960 -0.368740 18.100202 -10.261480 1.984254 -15.703055 2.840155 -25.048232 -8.603440 -8.236714 63.571690 -1.200191 -9.700426 0.958199 -0.275920 0.708560 0.419600 -2.787848 -4.076712 -8.099017 14.323770 -6.016555 17.995014 2.764149 -4.015750 0.659990 5.303733 -9.258013 -13.291545 -16.893517 6.695251 22.258625 -4.314770 4.997530 2.560570 8.319177 8.655717 6.057131 -46.919648 13.122473 -14.379078 -4.896964 -47.320942 -0.917819 -3.676198 3.715294 0.108250 0.359620 -0.113530 0.240530 -17.668247 2.099080 6.738365 6.249978 -0.152739 -7.987144 -132.939975 11.297797 -35.171668 2.540014 -2.500101 -0.113660 0.076130 0.222980 0.259710 
-0.387240 16.930720 1.390320 -5.295930 -14.666140 -12.888109 -15.456601 13.985155 3.510378 32.972426 -0.571501 -15.539638 -0.467062 15.374084 51.548445 1.017573 11.103038 0.814225 -0.285780 -0.444160 -0.327670 18.074060 -10.539968 1.665015 -14.802602 2.372331 -20.486050 -10.203429 -7.126888 64.371009 -1.249571 -9.816431 0.936687 -0.263300 0.767050 0.404450 -2.738080 -3.704702 -7.994576 12.006107 -4.890217 20.063709 1.487704 -3.613230 6.141506 5.398553 -8.734429 -13.608227 -15.913503 5.893387 23.103142 -6.584020 4.470020 0.047470 7.428972 4.059208 6.447607 -41.045090 8.004927 -11.774528 10.003980 -57.010964 -8.077513 -3.776180 3.459715 0.169170 0.401790 -0.149590 0.177920 -17.047038 5.817170 7.442657 5.645896 4.873891 -7.772428 -137.673620 8.432149 -37.401054 2.352764 -2.372055 -0.218970 0.197610 0.311600 0.194350 
-0.356660 16.976920 1.340380 -5.321798 -11.164235 -18.182410 -15.380352 13.828694 3.525698 34.844448 -0.195223 -12.445111 -1.961800 16.197401 50.468435 0.944201 11.267513 0.745770 -0.277660 -0.449880 -0.307770 18.126207 -10.985964 1.344807 -14.944456 1.587070 -14.106867 -11.022620 -6.488137 64.037436 -1.282287 -9.810851 0.960535 -0.216980 0.734810 0.324610 -2.961854 -2.951557 -7.745694 10.124966 -3.960923 20.485495 -1.083766 -3.398130 14.449312 4.783365 -9.255060 -14.553994 -17.567466 5.586902 26.235986 -5.947810 2.120750 -1.575080 5.760290 -4.386248 7.454883 -30.705911 4.974433 -10.730229 33.372053 -57.241942 -19.440796 -3.697652 2.988476 0.242640 0.353100 -0.166160 0.137870 -14.078945 13.834845 9.303125 0.279851 9.017399 -6.959858 -139.248897 11.976382 -51.574462 2.195376 -2.051337 -0.294380 0.280150 0.348250 0.142700 
-0.331190 17.005550 1.346510 -4.894440 -6.633305 -20.719391 -15.387203 13.720633 3.685739 35.442575 0.138640 -12.073995 -4.013171 17.174212 49.385819 0.990114 11.279932 0.708722 -0.187320 -0.365450 -0.204940 18.114578 -11.081759 1.197262 -16.160437 1.132086 -10.650971 -10.618947 -7.109489 64.759646 -1.414866 -9.897227 0.923116 -0.210330 0.597650 0.292490 -3.005562 -2.885505 -7.777866 8.246176 -2.359618 20.561146 -3.541598 -1.250248 16.686478 4.044410 -9.689514 -15.537147 -20.938968 4.987158 31.683490 -3.823890 -0.931500 -3.876570 3.257712 -11.415347 7.375108 -15.982144 -1.387025 -7.791144 41.184703 -51.719256 -20.096184 -3.601817 2.794916 0.338580 0.210520 -0.053520 0.126510 -10.170654 20.788303 11.422587 -2.377417 6.392997 -6.947177 -139.498709 22.787738 -75.179372 2.162973 -1.833889 -0.246900 0.287210 0.283130 0.132050 
-0.283060 17.009270 1.335380 -5.492735 -0.842351 -23.300065 -15.305033 13.545870 3.827300 36.174746 -0.162487 -12.592218 -4.629333 17.306185 49.687095 0.974871 11.380660 0.669998 -0.222970 -0.418750 -0.215050 18.178327 -11.203973 1.160276 -17.416403 0.543010 -7.247575 -8.921630 -9.097077 65.798404 -1.532058 -10.170998 0.851259 -0.246020 0.594630 0.254380 -3.305567 -2.613321 -7.880039 7.602145 -2.645307 22.922939 -7.460999 -0.181499 17.320267 3.416967 -9.831166 -16.931985 -23.556932 4.903967 35.205721 -1.553470 -3.253910 -4.482230 2.275385 -17.660561 7.040168 -4.293114 -7.166057 -7.777335 47.853793 -45.216519 -20.166897 -3.729807 2.668907 0.424730 0.153620 -0.022100 0.108010 -7.961866 26.459905 13.700635 -2.352695 3.507579 -8.522692 -135.506056 34.369128 -90.650053 2.203182 -1.656929 -0.284670 0.355130 0.314540 0.125920 
-0.256920 17.005170 1.303670 -6.407656 6.594868 -25.667727 -15.157239 13.304674 3.727379 35.646559 -0.607441 -14.709219 -2.495403 15.706548 50.885001 0.843388 11.107078 0.671253 -0.193740 -0.381650 -0.177320 18.307770 -11.391052 1.304602 -18.889727 0.291823 -4.737403 -5.831553 -12.506823 67.822047 -1.732388 -10.733078 0.654272 -0.237380 0.506960 0.263590 -3.811151 -1.940218 -7.967862 6.613566 -3.581241 25.713280 -11.537616 0.242218 18.470021 2.654155 -9.107994 -17.377132 -23.606589 4.327413 38.707303 -0.643980 -4.355390 -7.554340 3.347268 -23.457098 5.647061 5.607899 -13.166059 -9.607279 51.774786 -41.667573 -20.127784 -3.922509 2.675229 0.491960 0.086270 0.045050 0.061980 -7.784954 30.765297 15.228500 -1.015774 4.207431 -10.807656 -124.529090 45.697945 -91.379437 2.294326 -1.333199 -0.258910 0.342350 0.328060 0.101430 
-0.231330 16.991220 1.294010 -6.085065 9.826136 -27.001985 -15.040902 13.045818 3.489085 35.019940 0.353727 -14.900679 -1.171884 15.209254 51.527130 0.833750 11.017028 0.649970 -0.154210 -0.247500 -0.270930 18.440523 -11.476289 1.504649 -20.249952 1.787683 -3.745510 -2.999517 -14.643159 69.041145 -1.839991 -11.189725 0.501572 -0.156930 0.547400 0.306400 -4.218447 -1.240179 -8.002504 5.361502 -3.371922 25.797622 -14.050240 1.756954 20.624361 1.612155 -9.267541 -16.906610 -24.614425 6.204619 41.421042 2.274670 -4.364560 -7.336260 5.901213 -28.491004 5.592021 8.394319 -17.341090 -11.789383 58.950534 -38.562117 -22.578340 -4.174059 2.761351 0.428580 0.124590 0.054000 0.090150 -8.493629 35.710970 13.132215 -4.240819 8.434985 -14.744044 -100.936393 58.399185 -66.305410 2.266189 -0.346925 -0.198100 0.337150 0.352320 0.166780 
-0.227440 16.993970 1.282950 -5.573236 13.991629 -28.269657 -15.073783 13.213421 3.143420 32.215213 0.902629 -15.877918 1.713895 13.537220 52.730377 0.711967 10.738989 0.733857 -0.071850 -0.174860 -0.148120 18.374104 -11.286959 1.875885 -21.228135 3.600972 -2.192715 2.306353 -18.287688 68.864093 -1.995578 -11.585118 0.410696 -0.105870 0.511560 0.250240 -4.167773 -1.455436 -8.044118 2.035986 -2.816521 27.490019 -15.280027 3.605554 22.557483 1.247555 -8.797541 -17.395724 -26.053968 6.763844 45.108166 3.048140 -4.630030 -9.810470 9.548503 -33.117101 3.539917 9.654472 -23.513395 -14.147303 61.650754 -34.699046 -22.472191 -4.351628 2.655459 0.511450 0.073020 0.097800 0.083390 -11.721478 40.578973 13.605664 -4.845287 9.611515 -18.543403 -66.582721 58.416849 -36.366629 2.597825 -1.359848 -0.235310 0.437970 0.313520 0.123960 
-0.212940 16.977600 1.271630 -4.977283 16.680408 -29.954967 -15.247695 13.514594 3.026195 31.366604 1.993895 -16.212420 3.128383 12.935958 53.207884 0.670234 10.649368 0.746961 -0.017410 -0.052120 -0.172160 18.186173 -10.801539 2.181742 -22.627858 5.768841 -0.513809 8.014353 -21.294356 67.048629 -2.099179 -11.823015 0.339016 -0.016950 0.537290 0.195450 -3.697044 -2.410576 -8.110289 -2.161057 -2.024628 29.996760 -14.042231 5.329291 24.437345 0.241951 -8.793428 -17.999928 -29.775769 8.036288 46.978136 6.946030 -6.019610 -12.049410 13.267165 -36.795389 -0.718016 8.017728 -30.864768 -15.864922 59.963602 -26.761865 -18.750088 -4.457050 2.598872 0.537850 0.033230 0.127060 0.118300 -14.077514 45.669344 13.947866 -10.764182 9.085381 -16.871084 -33.055862 48.186686 -12.314479 2.324719 -1.829040 -0.254950 0.550420 0.307820 0.160230 
-0.177750 16.951700 1.286040 -5.078416 18.092763 -29.223100 -15.271013 13.349918 3.115570 31.606828 3.374819 -18.595928 3.532580 13.313950 53.656750 0.753065 10.647046 0.733421 0.078670 0.087730 -0.136730 18.203150 -10.447482 2.451654 -23.413930 7.881156 -1.943539 12.777886 -23.134609 64.782623 -2.186343 -11.828889 0.368556 0.001630 0.510720 0.190700 -3.721866 -2.466418 -8.371842 -1.730014 -1.362673 31.111584 -14.393182 6.370542 23.391940 -0.120238 -8.034125 -18.739100 -32.880549 9.803311 51.784530 9.863330 -7.080670 -13.553330 12.299853 -41.011491 -4.293596 5.469934 -40.294696 -14.830395 58.636282 -16.831725 -14.147368 -4.253937 2.509713 0.561590 -0.025780 0.212600 0.178400 -13.026823 50.777931 13.219020 -11.083608 12.703939 -14.469341 -26.451507 31.473460 -6.359492 2.647620 -1.651570 -0.182420 0.590590 0.240300 0.207740 
-0.114520 16.897140 1.339210 -4.651295 19.023895 -26.328453 -15.330042 13.083876 3.595757 32.372380 3.981427 -22.328162 1.733711 15.169439 54.372529 0.837620 10.956970 0.575284 0.015910 0.039340 -0.178690 18.209185 -10.069831 2.478735 -25.260242 8.302878 -5.097239 14.745018 -23.588599 62.513764 -2.102451 -11.593696 0.436313 -0.080380 0.489380 0.158980 -3.654850 -2.697404 -8.719781 -2.382953 -0.512829 29.687865 -14.847096 6.534976 20.152672 -0.185800 -6.289624 -21.280778 -34.988893 15.067783 59.004211 11.964850 -5.633200 -9.816510 10.210554 -44.720670 -4.744601 0.425610 -45.199003 -11.104084 57.956848 -12.067091 -11.331238 -4.106313 2.393232 0.599400 -0.049050 0.235550 0.140790 -10.724471 53.495605 14.391339 -6.026114 17.605344 -14.054911 -31.645139 24.992511 -7.000965 2.805654 -1.342665 -0.168600 0.568220 0.273530 0.202760 
